<svg xmlns="http://www.w3.org/2000/svg" width="1024" height="1024" viewBox="0 0 1024 1024">
<g>
<path d="M 0.00 0.00 L 1024.00 0.00 L 1024.00 1024.00 L 0.00 1024.00 ZM 508.00 754.16 C509.92,755.13 512.47,755.94 513.65,755.96 C516.06,756.00 536.47,746.04 576.50,725.27 C611.73,706.99 680.44,672.35 690.00,668.05 C694.12,666.19 702.75,662.32 709.17,659.45 C721.87,653.77 725.14,651.30 726.87,646.10 C727.67,643.69 728.01,620.92 728.02,568.10 L 728.04 493.50 L 747.12 484.52 C766.81,475.26 770.22,472.81 771.50,467.02 C772.54,462.27 769.47,454.36 749.54,410.50 C745.29,401.15 739.32,387.98 736.26,381.22 C732.48,372.88 729.64,368.01 727.38,366.03 C724.30,363.32 689.09,345.34 653.00,328.05 C644.47,323.97 624.90,314.47 609.50,306.94 C594.10,299.41 579.03,292.11 576.00,290.72 C572.97,289.33 561.05,283.61 549.50,278.00 C518.60,263.00 516.28,262.00 512.45,262.00 C510.07,262.00 502.70,265.06 489.23,271.63 C468.54,281.73 446.01,292.60 432.50,299.01 C428.10,301.10 413.70,308.07 400.50,314.50 C387.30,320.94 372.67,328.02 368.00,330.25 C338.04,344.52 304.68,361.14 299.96,364.16 C295.38,367.09 293.86,368.84 291.21,374.23 C289.44,377.81 288.00,381.39 288.00,382.17 C288.00,382.96 287.59,384.03 287.08,384.55 C286.11,385.55 272.21,416.62 266.30,431.00 C264.37,435.67 262.20,440.85 261.46,442.50 C260.73,444.15 258.75,448.60 257.06,452.39 C254.91,457.23 254.00,460.83 254.00,464.52 C254.00,469.27 254.36,470.12 257.75,473.45 C260.13,475.78 267.14,479.83 277.00,484.57 C285.52,488.66 293.62,492.65 295.00,493.44 L 297.50 494.87 L 298.00 570.86 C298.49,645.59 298.53,646.90 300.56,649.68 C302.93,652.93 307.43,655.30 337.00,668.86 C374.53,686.08 462.29,729.28 483.50,740.99 C492.04,745.70 504.34,752.31 508.00,754.16 ZM 593.31 419.38 C548.66,441.72 511.99,459.97 511.81,459.92 C511.64,459.88 498.26,453.24 482.07,445.17 C377.70,393.14 342.61,375.34 342.24,374.22 C341.87,373.11 361.46,363.09 396.00,346.75 C405.67,342.18 436.78,327.11 458.50,316.49 C493.80,299.22 511.36,291.00 512.90,291.01 C513.78,291.02 518.70,293.04 523.84,295.51 C528.98,297.98 533.33,300.00 533.52,300.00 C533.71,300.00 543.68,304.78 555.68,310.62 C567.68,316.46 582.45,323.61 588.50,326.50 C602.99,333.42 668.77,365.27 676.75,369.24 C680.19,370.94 683.00,372.67 683.00,373.08 C683.00,374.39 675.66,378.17 593.31,419.38 ZM 511.76 559.33 C511.90,590.03 511.90,639.87 511.76,670.08 L 511.50 725.02 L 507.70 722.98 C493.86,715.56 393.85,665.76 367.50,653.16 C349.90,644.74 333.48,636.88 331.00,635.68 L 326.50 633.50 L 326.24 572.56 C326.10,539.04 326.36,511.24 326.82,510.78 C327.79,509.81 339.76,515.37 401.50,545.50 C443.33,565.91 456.20,571.98 460.08,573.14 C465.94,574.90 471.09,572.24 476.09,564.86 C478.24,561.70 480.00,558.92 480.00,558.68 C480.00,558.33 499.40,524.28 508.88,508.00 L 511.50 503.50 ZM 460.24 538.00 C459.19,539.92 457.69,541.59 456.91,541.70 C456.14,541.81 449.88,539.13 443.00,535.74 C416.42,522.64 357.74,494.00 357.47,494.00 C357.31,494.00 346.91,489.00 334.34,482.88 C321.78,476.77 305.59,468.93 298.37,465.47 C291.14,462.01 284.94,458.71 284.58,458.14 C284.23,457.56 285.80,453.13 288.07,448.30 C290.34,443.46 293.90,435.67 295.98,431.00 C298.07,426.33 300.89,420.02 302.26,417.00 C303.63,413.98 306.65,407.11 308.98,401.75 C311.53,395.89 313.79,392.00 314.66,392.00 C315.45,392.00 330.36,399.15 347.80,407.90 C365.23,416.64 404.60,436.21 435.28,451.39 C465.96,466.56 491.28,479.57 491.56,480.30 C491.84,481.02 487.86,489.02 482.72,498.06 C473.26,514.68 463.75,531.58 460.24,538.00 ZM 576.10 537.87 C571.47,540.14 567.42,542.00 567.09,542.00 C566.32,542.00 564.57,539.21 560.17,531.00 C558.25,527.42 553.53,518.88 549.68,512.00 C539.17,493.24 533.04,481.63 533.02,480.43 C533.01,479.85 543.46,474.25 556.25,467.99 C569.04,461.74 605.38,443.83 637.00,428.21 C704.75,394.74 708.37,393.00 710.24,393.00 C711.66,393.00 712.56,394.76 725.00,422.00 C728.39,429.42 732.42,438.20 733.97,441.50 C737.36,448.76 741.00,457.11 741.00,457.64 C741.00,457.86 735.49,460.67 728.75,463.89 C686.80,483.93 622.43,515.13 576.10,537.87 Z" fill="rgb(13,129,206)"/>
<path d="M 361.30 363.53 C348.72,369.83 342.02,373.57 342.24,374.22 C342.52,375.07 362.79,385.53 418.14,413.25 L 417.64 413.00 C374.98,391.83 340.18,374.12 340.32,373.64 C340.46,373.17 342.13,372.22 344.04,371.53 C345.58,370.97 352.78,367.63 361.30,363.53 ZM 593.31 419.38 C548.66,441.72 511.99,459.98 511.81,459.96 C511.68,459.94 509.46,458.83 506.44,457.29 C509.77,458.93 511.75,459.91 511.81,459.92 C511.99,459.97 548.66,441.72 593.31,419.38 Z" fill="rgb(135,177,137)"/>
<path d="M 508.00 754.16 C504.34,752.31 492.04,745.70 483.50,740.99 C462.29,729.28 374.53,686.08 337.00,668.86 C307.43,655.30 302.93,652.93 300.56,649.68 C298.53,646.90 298.49,645.59 298.00,570.86 L 297.50 494.87 L 295.00 493.44 C293.62,492.65 285.52,488.66 277.00,484.57 C267.14,479.83 260.13,475.78 257.75,473.45 C254.36,470.12 254.00,469.27 254.00,464.52 C254.00,460.83 254.91,457.23 257.06,452.39 C258.75,448.60 260.73,444.15 261.46,442.50 C262.20,440.85 264.37,435.67 266.30,431.00 C272.21,416.62 286.11,385.55 287.08,384.55 C287.59,384.03 288.00,382.96 288.00,382.17 C288.00,381.39 289.44,377.81 291.21,374.23 C293.86,368.84 295.38,367.09 299.96,364.16 C304.68,361.14 338.04,344.52 368.00,330.25 C372.67,328.02 387.30,320.94 400.50,314.50 C413.70,308.07 428.10,301.10 432.50,299.01 C446.01,292.60 468.54,281.73 489.23,271.63 C502.70,265.06 510.07,262.00 512.45,262.00 C516.28,262.00 518.60,263.00 549.50,278.00 C561.05,283.61 572.97,289.33 576.00,290.72 C579.03,292.11 594.10,299.41 609.50,306.94 C624.90,314.47 644.47,323.97 653.00,328.05 C689.09,345.34 724.30,363.32 727.38,366.03 C729.64,368.01 732.48,372.88 736.26,381.22 C739.32,387.98 745.29,401.15 749.54,410.50 C769.47,454.36 772.54,462.27 771.50,467.02 C770.22,472.81 766.81,475.26 747.12,484.52 L 728.04 493.50 L 728.02 568.10 C728.01,620.92 727.67,643.69 726.87,646.10 C725.14,651.30 721.87,653.77 709.17,659.45 C702.75,662.32 694.12,666.19 690.00,668.05 C680.44,672.35 611.73,706.99 576.50,725.27 C536.47,746.04 516.06,756.00 513.65,755.96 C512.47,755.94 509.92,755.13 508.00,754.16 ZM 511.76 559.33 L 511.50 503.50 L 508.88 508.00 C499.40,524.28 480.00,558.33 480.00,558.68 C480.00,558.92 478.24,561.70 476.09,564.86 C471.09,572.24 465.94,574.90 460.08,573.14 C456.20,571.98 443.33,565.91 401.50,545.50 C339.76,515.37 327.79,509.81 326.82,510.78 C326.36,511.24 326.10,539.04 326.24,572.56 L 326.50 633.50 L 331.00 635.68 C333.48,636.88 349.90,644.74 367.50,653.16 C393.85,665.76 493.86,715.56 507.70,722.98 L 511.50 725.02 L 511.76 670.08 C511.90,639.87 511.90,590.03 511.76,559.33 ZM 460.24 538.00 C463.75,531.58 473.26,514.68 482.72,498.06 C487.86,489.02 491.84,481.02 491.56,480.30 C491.28,479.57 465.96,466.56 435.28,451.39 C404.60,436.21 365.23,416.64 347.80,407.90 C330.36,399.15 315.45,392.00 314.66,392.00 C313.79,392.00 311.53,395.89 308.98,401.75 C306.65,407.11 303.63,413.98 302.26,417.00 C300.89,420.02 298.07,426.33 295.98,431.00 C293.90,435.67 290.34,443.46 288.07,448.30 C285.80,453.13 284.23,457.56 284.58,458.14 C284.94,458.71 291.14,462.01 298.37,465.47 C305.59,468.93 321.78,476.77 334.34,482.88 C346.91,489.00 357.31,494.00 357.47,494.00 C357.74,494.00 416.42,522.64 443.00,535.74 C449.88,539.13 456.14,541.81 456.91,541.70 C457.69,541.59 459.19,539.92 460.24,538.00 ZM 576.10 537.87 C622.43,515.13 686.80,483.93 728.75,463.89 C735.49,460.67 741.00,457.86 741.00,457.64 C741.00,457.11 737.36,448.76 733.97,441.50 C732.42,438.20 728.39,429.42 725.00,422.00 C712.56,394.76 711.66,393.00 710.24,393.00 C708.37,393.00 704.75,394.74 637.00,428.21 C605.38,443.83 569.04,461.74 556.25,467.99 C543.46,474.25 533.01,479.85 533.02,480.43 C533.04,481.63 539.17,493.24 549.68,512.00 C553.53,518.88 558.25,527.42 560.17,531.00 C564.57,539.21 566.32,542.00 567.09,542.00 C567.42,542.00 571.47,540.14 576.10,537.87 ZM 593.31 419.38 C675.66,378.17 683.00,374.39 683.00,373.08 C683.00,372.67 680.19,370.94 676.75,369.24 C668.77,365.27 602.99,333.42 588.50,326.50 C582.45,323.61 567.68,316.46 555.68,310.62 C543.68,304.78 533.71,300.00 533.52,300.00 C533.33,300.00 528.98,297.98 523.84,295.51 C518.70,293.04 513.78,291.02 512.90,291.01 C511.36,291.00 493.73,299.26 458.50,316.49 C436.98,327.02 408.17,340.97 396.50,346.52 C391.55,348.87 378.50,355.18 367.50,360.53 C356.50,365.89 345.94,370.84 344.04,371.53 C342.13,372.22 340.46,373.17 340.32,373.64 C340.18,374.12 374.98,391.83 417.64,413.00 C460.31,434.17 498.89,453.39 503.36,455.71 C507.84,458.02 511.64,459.93 511.81,459.96 C511.99,459.98 548.66,441.72 593.31,419.38 Z" fill="rgb(252,224,57)"/>
</g>
</svg>