<?xml version="1.0" encoding="UTF-8" standalone="no"?>
<!-- Created with Inkscape (http://www.inkscape.org/) -->

<svg
   version="1.1"
   id="svg1"
   width="1024"
   height="311"
   viewBox="0 0 1024 311"
   sodipodi:docname="Gemini_Generated_Image_1ispf21ispf21isp (1).png"
   inkscape:export-filename="Gemini_Generated_Image_1ispf21ispf21isp (1).svg"
   inkscape:export-xdpi="96"
   inkscape:export-ydpi="96"
   xmlns:inkscape="http://www.inkscape.org/namespaces/inkscape"
   xmlns:sodipodi="http://sodipodi.sourceforge.net/DTD/sodipodi-0.dtd"
   xmlns="http://www.w3.org/2000/svg"
   xmlns:svg="http://www.w3.org/2000/svg">
  <defs
     id="defs1" />
  <sodipodi:namedview
     id="namedview1"
     pagecolor="#ffffff"
     bordercolor="#000000"
     borderopacity="0.25"
     inkscape:showpageshadow="2"
     inkscape:pageopacity="0.0"
     inkscape:pagecheckerboard="0"
     inkscape:deskcolor="#d1d1d1">
    <inkscape:page
       x="0"
       y="0"
       width="1024"
       height="311"
       id="page2"
       margin="0"
       bleed="0" />
  </sodipodi:namedview>
  <path
     style="opacity:1;mix-blend-mode:normal;fill:#3f3f3f;fill-opacity:1;fill-rule:evenodd"
     d="m 709.42146,262.54614 6.622,-1.40363 6.36597,-3.21353 6.36597,-3.21353 6.58797,-6.61548 6.58797,-6.61548 2.74448,-5.83692 2.74447,-5.83692 1.41222,-6.66308 1.41222,-6.66308 0.01,-59.5 0.01,-59.5 -1.01359,-6.5 -1.01359,-6.5 -3.44475,-7.070462 -3.44475,-7.07047 -4.27578,-4.85755 -4.27579,-4.85755 -5.92434,-3.82908 -5.92433,-3.82908 -7.08399,-2.21746 -7.08398,-2.21746 -15,-0.0127 -15,-0.0127 -6,1.82594 c -3.3,1.00427 -8.60157,3.20622 -11.78126,4.89322 l -5.78127,3.06728 -5.85745,6.26163 -5.85745,6.26164 -2.98269,6.33237 -2.98306,6.33239 -1.1286,5.299222 -1.1286,5.29922 0.0174,61.70078 0.0174,61.70078 1.43676,6.78039 1.43677,6.7804 2.77877,5.2196 2.77878,5.21961 7.01709,7.07953 7.0171,7.07953 5.87453,2.75868 5.87453,2.75867 6.12547,1.3323 6.12547,1.33229 11.5,0.0621 11.5,0.0621 z m -32.19265,-17.87113 c -2.51386,-0.70964 -6.62893,-2.4965 -9.1446,-3.97078 l -4.57396,-2.68051 -2.76523,-3.26962 c -1.52087,-1.79829 -3.93081,-5.74461 -5.3554,-8.76961 l -2.59016,-5.5 v -64.5 -64.5 l 2.64796,-5.64796 2.64796,-5.647962 3.89423,-3.89423 3.89423,-3.89423 4.95781,-2.41272 4.95781,-2.41272 12.84662,-0.398 12.84661,-0.398 4.65339,1.23676 c 2.55936,0.68022 6.52138,2.29441 8.80448,3.5871 l 4.1511,2.35035 4.0238,4.57128 4.0238,4.57127 1.81107,4.694532 1.81107,4.69453 0.30003,61.67467 0.30004,61.67468 -2.11092,6.26617 -2.11092,6.26617 -3.06812,4.27228 -3.06813,4.27228 -3.60696,2.4906 c -1.98383,1.36983 -5.40696,3.26255 -7.60696,4.20605 l -4,1.71545 -12,0.32122 -12,0.32121 z m -173.14042,7.55948 -0.28893,-8.75 -47.75,-0.2597 -47.75,-0.25969 v -38.99031 -38.9903 h 39.03893 39.03894 l -0.28894,-8.75 -0.28893,-8.75 -38.75,-0.26174 -38.75,-0.26175 V 108.47275 69.984488 h 47.53753 47.53752 l -0.28752,-9.25 -0.28753,-9.25 -55.93574,-0.25848 -55.93574,-0.25848 -0.79895,1.25848 -0.79894,1.25848 -0.0153,103.750002 -0.0153,103.75 h 57.53893 57.53894 z m 114.21107,-0.25 v -9 h -39.99498 -39.99497 l -0.25503,-95.75 -0.25502,-95.750002 h -9 -9 L 519.5418,154.98449 c -0.14171,56.925 -0.0433,104.06252 0.21861,104.75 l 0.47628,1.25 h 49.03139 49.03138 z m 181.62827,-15.5 c 6.35909,-13.2 14.49458,-30.075 18.07887,-37.5 3.5843,-7.425 7.61515,-15.92884 8.95746,-18.89742 l 2.44057,-5.39741 0.80817,0.89741 c 0.7958,0.88367 26.48921,53.66933 36.33465,74.64742 l 5.04519,10.75 h 9.85341 9.85341 v -1.10894 c 0,-0.60991 -10.19311,-22.09741 -22.65136,-47.75 -12.45825,-25.65258 -23.95948,-49.50152 -25.55829,-52.99765 l -2.90692,-6.35658 8.48797,-17.64342 c 4.66838,-9.70387 13.74973,-28.44341 20.18076,-41.64341 6.43103,-13.200002 13.43238,-27.764012 15.55858,-32.364472 l 3.86581,-8.36446 -0.54729,-0.88554 -0.54729,-0.88553 h -9.28255 -9.28255 l -5.08795,10.75 c -16.5096,34.882072 -32.49012,67.873162 -33.25709,68.657772 l -0.88736,0.90776 -13.66161,-27.90776 C 808.20843,88.04299 799.43318,69.971988 796.22175,63.234488 l -5.83897,-12.25 h -9.54166 -9.54166 v 1.38647 c 0,1.73038 5.41863,13.29726 23.24198,49.613532 16.49548,33.61063 24.75802,50.76341 24.75802,51.39689 0,0.25193 -11.475,24.20551 -25.5,53.23019 -14.025,29.02468 -25.5,53.14806 -25.5,53.60752 v 0.83537 l 10.03315,-0.28499 10.03314,-0.28498 z"
     id="path6"
     sodipodi:nodetypes="ccccccccccccccccccccccccssccccccccccccccccccccccsscsscccccccccccsscccccccccccsscccscccccccccccccccccccccccccccsccccccssccccssscsscccssscssscccccsscsscccssssscccss" />
  <g
     inkscape:groupmode="layer"
     inkscape:label="Image"
     id="g1">
    <g
       id="g6"
       transform="translate(30,-2)">
      <path
         style="fill:#3f3f3f;fill-opacity:1"
         d="m 98.332033,214.29267 c -1.061888,-3.51074 -0.900651,-3.2308 -1.33388,-4.71625 -0.617476,-2.11719 -1.062593,-4.12045 -1.563851,-6.00808 C 92.160339,191.23932 89.712527,182.44785 86.454171,152.5 l -1.414413,-13 -0.141322,-11.79893 -0.316737,-11.17823 -0.03614,-1.4859 -0.02265,-1.48591 -3.347725,8.24362 c -1.45785,3.58989 -3.053326,9.82392 -3.716317,13.73234 l -0.932337,5.49624 -0.914085,19.47677 0.557142,20.26933 2.179465,12.69089 c 2.619161,15.25121 9.56663,25.81896 16.487965,36.22949 3.880292,5.83643 6.589403,7.70476 10.729723,13.03463 9.86439,12.6985 4.86316,3.72164 1.04696,-5.14151 -0.9372,-2.17663 -1.86391,-4.54718 -2.83157,-6.94384 -1.61425,-3.99811 -2.99827,-8.24025 -4.127731,-11.9744 z m 45.782887,-33.68465 c 19.58175,-30.00799 33.51551,-48.1506 57.05167,-74.28479 l 10.96626,-12.17677 10.18358,-9.02319 c 14.33889,-12.70502 22.9682,-19.461442 32.02092,-25.07113 l 7.83735,-4.85656 -6.33735,-3.53928 C 248.13715,47.35589 234.14075,41.967462 224,39.39935 L 216.5,37.5 198,37.502 l -18.5,0.002 -7.17845,1.74376 C 156.77935,43.023 142.31782,49.382194 129,58.2973 l -7.5,5.02059 -9.90307,9.84778 -9.90307,9.84779 0.67883,16.24327 c 0.83844,20.06255 2.06633,30.78634 5.2949,46.24327 l 2.5065,12 4.42525,13.5 4.42524,13.5 4.71263,9.85881 4.71263,9.85881 1.34227,-1.85881 c 0.73825,-1.02234 7.18351,-10.8102 14.32281,-21.75079 z"
         id="path7"
         sodipodi:nodetypes="sssscccccsscccssssssssscsscsscccsscccsscccccss" />
    </g>
  </g>
  <path
     d="m 248.39701,284.6211 7.99023,-1.51572 9.55832,-3.41627 9.55832,-3.41628 8.04888,-4.66448 c 4.42688,-2.56546 11.27221,-7.08399 15.21184,-10.04116 l 7.16297,-5.37669 8.02212,-8.47482 8.02213,-8.47482 5.71602,-8.59065 5.71603,-8.59066 3.96035,-9.16146 3.96036,-9.16147 2.43283,-9.5 2.43284,-9.5 1.15784,-10.24706 1.15784,-10.24705 -1.15881,-12.75295 -1.15881,-12.75294 -2.60382,-9 c -1.4321,-4.95 -4.41383,-13.13565 -6.62605,-18.19033 l -4.02223,-9.19034 -7.39275,-11.141018 -7.39275,-11.14101 -1.0695,-3.66865 c -0.58823,-2.01776 -1.31806,-5.91865 -1.62186,-8.66865 l -0.55236,-5 1.62483,-6.93069 c 0.89366,-3.81188 2.11756,-7.52438 2.71977,-8.25 l 1.09493,-1.31931 h -1.26103 c -1.70136,0 -16.38137,9.8374 -25.82231,17.30411 -47.25764,37.375388 -98.4172,117.147428 -131.15043,204.500128 -4.88052,13.0243 -4.94287,12.59431 1.53554,10.58976 l 4.95334,-1.53266 5.09696,0.56008 c 2.80332,0.30804 9.33386,1.86428 14.5123,3.4583 5.17844,1.59403 12.78481,3.39677 16.90304,4.0061 4.11824,0.60933 8.6127,1.30276 9.9877,1.54095 1.375,0.23819 7.63116,0.21715 13.90258,-0.0467 l 11.40259,-0.47982 z"
     style="mix-blend-mode:normal;fill:#0d81ce;fill-opacity:1;fill-rule:evenodd"
     id="path1" />
</svg>
