<?xml version="1.0" encoding="UTF-8" standalone="no"?>
<!-- Created with Inkscape (http://www.inkscape.org/) -->

<svg
   version="1.1"
   id="svg1"
   width="274"
   height="271"
   viewBox="0 0 274 271"
   sodipodi:docname="Gemini_Generated_Image_1ispf21ispf21isp (2).png"
   inkscape:version="1.4.2 (ebf0e940, 2025-05-08)"
   inkscape:export-filename="LOGO VELOX.svg"
   inkscape:export-xdpi="96"
   inkscape:export-ydpi="96"
   xmlns:inkscape="http://www.inkscape.org/namespaces/inkscape"
   xmlns:sodipodi="http://sodipodi.sourceforge.net/DTD/sodipodi-0.dtd"
   xmlns="http://www.w3.org/2000/svg"
   xmlns:svg="http://www.w3.org/2000/svg">
  <defs
     id="defs1" />
  <sodipodi:namedview
     id="namedview1"
     pagecolor="#ffffff"
     bordercolor="#000000"
     borderopacity="0.25"
     inkscape:showpageshadow="2"
     inkscape:pageopacity="0.0"
     inkscape:pagecheckerboard="0"
     inkscape:deskcolor="#d1d1d1"
     inkscape:zoom="1.2795441"
     inkscape:cx="228.20629"
     inkscape:cy="33.996485"
     inkscape:window-width="1440"
     inkscape:window-height="872"
     inkscape:window-x="0"
     inkscape:window-y="28"
     inkscape:window-maximized="0"
     inkscape:current-layer="g1"
     inkscape:export-bgcolor="#ffffffff">
    <inkscape:page
       x="0"
       y="0"
       width="274"
       height="271"
       id="page2"
       margin="0"
       bleed="0" />
  </sodipodi:namedview>
  <g
     inkscape:groupmode="layer"
     inkscape:label="Image"
     id="g1">
    <path
       style="fill:#ffffff"
       d="M 48.670678,215.90344 C 40.055476,197.30452 34.322817,175.95698 30.03311,146.5 27.912315,131.93671 26.029918,110.81192 25.711351,98 25.501385,89.555703 25.489408,89.51966 23.88368,92.5 c -0.888976,1.65 -2.898459,7.725 -4.465518,13.5 -2.667329,9.82976 -2.851399,11.74472 -2.88368,30 -0.02714,15.34781 0.34585,21.097 1.751678,27 3.950978,16.58996 9.637948,30.53863 16.782088,41.16211 4.67954,6.95857 17.045514,22.05746 17.606,21.49698 0.193708,-0.19371 -1.607899,-4.58375 -4.00357,-9.75565 z M 74.997818,172.75 C 114.7635,108.07859 160.74888,57.11888 201.64268,32.405682 c 1.6231,-0.980877 1.3597,-1.379087 -2.54082,-3.841382 C 193.25603,24.873991 180.13339,19.327382 171.5219,16.90695 162.8755,14.476704 146.49929,12.042878 138.62834,12.01832 123.24639,11.970327 99.737775,17.606739 85.5,24.756337 72.18326,31.443431 55.703275,44.027271 47.102155,54.076287 l -4.397845,5.13817 0.587584,17.142771 C 44.267624,104.82416 48.207297,127.06435 56.514269,151 c 4.091319,11.7887 11.920827,29 13.192245,29 0.45835,0 2.839437,-3.2625 5.291304,-7.25 z"
       id="path1"
       sodipodi:nodetypes="ssssssssssssssssscssss" />
    <path
       style="fill:#0d81ce;stroke-width:1.05185"
       d="m 116.65824,257.82672 c -4.97058,-1.09016 -11.83091,-2.79419 -15.24519,-3.78676 -9.90275,-2.87879 -16.27743,-3.58465 -22.36457,-2.47633 -3.09384,0.56331 -5.79866,0.8507 -6.01071,0.63865 -0.51587,-0.51588 12.4094,-32.48427 20.37515,-50.39434 35.82183,-80.54132 83.52703,-144.688205 130.90919,-176.027285 3.33519,-2.205928 6.32461,-3.75014 6.64317,-3.431581 0.31856,0.318558 0.0572,2.517644 -0.58073,4.886858 -1.50557,5.591252 -1.56788,16.490244 -0.12493,21.848981 0.62547,2.322823 3.80754,8.440547 7.07125,13.594941 8.79693,13.893019 16.90843,31.396422 19.99607,43.148466 3.6567,13.91802 4.55493,36.30007 2.03832,50.79112 -8.30156,47.80187 -44.74883,87.77765 -90.85335,99.64901 -14.33884,3.69207 -38.77612,4.42644 -51.85367,1.55827 z"
       id="path4"
       sodipodi:nodetypes="ssssssscssssss" />
  </g>
</svg>
